<?xml version="1.0" encoding="UTF-8" standalone="no"?>
<svg
   xmlns:dc="http://purl.org/dc/elements/1.1/"
   xmlns:cc="http://creativecommons.org/ns#"
   xmlns:rdf="http://www.w3.org/1999/02/22-rdf-syntax-ns#"
   xmlns:svg="http://www.w3.org/2000/svg"
   xmlns="http://www.w3.org/2000/svg"
   id="svg823"
   version="1.1"
   viewBox="0 0 100.93849 56.542419"
   height="56.542419mm"
   width="100.93848mm">
  <defs
     id="defs817" />
  <metadata
     id="metadata820">
    <rdf:RDF>
      <cc:Work
         rdf:about="">
        <dc:format>image/svg+xml</dc:format>
        <dc:type
           rdf:resource="http://purl.org/dc/dcmitype/StillImage" />
        <dc:title></dc:title>
      </cc:Work>
    </rdf:RDF>
  </metadata>
  <g
     transform="translate(-54.617563,-101.5116)"
     id="layer1">
    <path
       id="path1398"
       d="m 82.362203,106.82133 c -0.231593,-0.60352 0.09256,-1.19063 0.657368,-1.19063 0.656045,0 1.153014,0.6098 0.942998,1.15709 -0.207496,0.54074 -1.396179,0.56564 -1.600366,0.0335 z m 3.446703,0.0186 c -0.263438,-0.68651 0.105801,-1.25391 0.755912,-1.1616 0.437285,0.0621 0.596495,0.26126 0.596495,0.74616 0,0.48491 -0.15921,0.68407 -0.596495,0.74617 -0.357791,0.0508 -0.660292,-0.0815 -0.755912,-0.33073 z m 3.439583,0 c -0.263438,-0.68651 0.105802,-1.25391 0.755912,-1.1616 0.437285,0.0621 0.596495,0.26126 0.596495,0.74616 0,0.48491 -0.15921,0.68407 -0.596495,0.74617 -0.357791,0.0508 -0.660292,-0.0815 -0.755912,-0.33073 z"
       style="fill:#ffffff;fill-opacity:1;stroke-width:1" />
    <path
       style="fill:#ffffff;fill-opacity:1;stroke-width:1"
       d="m 73.085479,144.36562 c 0,-2.67523 0.09353,-3.26762 0.515938,-3.26762 0.283765,0 0.515937,0.18575 0.515937,0.41275 0,0.32104 0.09173,0.32104 0.41275,0 1.122672,-1.12267 2.682874,0.0208 2.682874,1.96623 0,1.63073 -0.953369,2.61705 -2.22187,2.29868 -0.791183,-0.19857 -0.873754,-0.12116 -0.873754,0.81913 0,0.69373 -0.171257,1.03843 -0.515937,1.03843 -0.422405,0 -0.515938,-0.59237 -0.515938,-3.2676 z m 3.298339,0 c 0.118703,-0.47296 0.116246,-1.25662 -0.0055,-1.74148 -0.17948,-0.71512 -0.397615,-0.86127 -1.155152,-0.77392 -0.781213,0.0901 -0.951908,0.29579 -1.044114,1.2583 -0.153329,1.6006 0.12103,2.11698 1.124751,2.11698 0.634892,0 0.921395,-0.22811 1.07996,-0.85988 z m -13.27313,-1.89178 v -3.43959 h 2.06375 c 1.146528,0 2.063749,0.15288 2.063749,0.34397 0,0.18917 -0.773906,0.34395 -1.719791,0.34395 h -1.719792 v 1.20385 c 0,1.19749 0.0082,1.20386 1.547813,1.20386 0.851297,0 1.547812,0.15479 1.547812,0.34396 0,0.18918 -0.696515,0.34396 -1.547812,0.34396 -1.539623,0 -1.547813,0.006 -1.547813,1.20385 v 1.20385 h 1.719792 c 0.945885,0 1.719791,0.15479 1.719791,0.34397 0,0.19109 -0.917221,0.34395 -2.063749,0.34395 h -2.06375 z m 5.821083,2.20291 0.729658,-1.23668 -0.723736,-1.17103 c -0.554033,-0.89645 -0.60981,-1.17104 -0.237868,-1.17104 0.267228,0 0.696276,0.39316 0.953442,0.87368 l 0.467574,0.87366 0.53011,-0.87366 c 0.291561,-0.48052 0.736973,-0.87368 0.989803,-0.87368 0.317364,0 0.220175,0.33638 -0.313901,1.08642 l -0.773592,1.08641 0.760442,1.3213 c 0.562599,0.97753 0.637903,1.32129 0.289445,1.32129 -0.259049,0 -0.665089,-0.42564 -0.902312,-0.94588 l -0.431313,-0.94589 -0.754682,0.94589 c -1.078196,1.35137 -1.444251,1.16881 -0.58307,-0.29079 z m 10.285848,0.88021 c -1.189047,-0.69382 -1.064416,-3.35371 0.196589,-4.19572 0.737393,-0.49236 1.894433,-0.25299 2.422705,0.50121 1.499806,2.14129 -0.484527,4.94017 -2.619294,3.69451 z m 2.105596,-0.82659 c 0.958464,-1.15488 -0.182587,-3.33732 -1.483799,-2.838 -0.569023,0.21836 -0.826036,2.61118 -0.333381,3.10384 0.395604,0.3956 1.388825,0.2503 1.81718,-0.26584 z m 2.081013,-1.22465 c 0,-2.15471 0.385103,-3.1371 0.775299,-1.97777 0.112372,0.33391 0.274314,0.32296 0.724889,-0.049 0.319103,-0.26343 0.692532,-0.3626 0.829844,-0.22038 0.137308,0.14224 -0.09861,0.49273 -0.52425,0.7789 -0.625695,0.42064 -0.773907,0.84161 -0.773907,2.19813 0,1.26211 -0.127842,1.67783 -0.515938,1.67783 -0.409475,0 -0.515937,-0.49682 -0.515937,-2.4077 z m 4.196292,1.99495 c -0.227012,-0.227 -0.41275,-1.1428 -0.41275,-2.03508 0,-0.96156 -0.17512,-1.70407 -0.429949,-1.82298 -0.343958,-0.16051 -0.343958,-0.24077 0,-0.40128 0.236471,-0.11037 0.429949,-0.49732 0.429949,-0.8599 0,-0.3626 0.154781,-0.65926 0.343958,-0.65926 0.189177,0 0.343958,0.30957 0.343958,0.68792 0,0.38218 0.229307,0.68791 0.515937,0.68791 0.283766,0 0.515938,0.15479 0.515938,0.34397 0,0.18917 -0.232172,0.34395 -0.515938,0.34395 -0.383734,0 -0.515937,0.40486 -0.515937,1.58002 0,1.29075 0.125944,1.61295 0.687917,1.7599 0.378353,0.0989 0.687916,0.31663 0.687916,0.48375 0,0.44712 -1.172303,0.36978 -1.650999,-0.10894 z"
       id="path1410" />
    <path
       id="path1400"
       d="m 57.660272,149.81605 c -0.514913,-0.51491 -0.545871,0.40009 -0.529167,-9.92188 0.01385,-8.55485 0.09176,-13.09688 0.264583,-13.09688 0.172778,0 0.236518,4.4843 0.264584,12.92358 0.03341,10.04597 0.02768,9.24447 0.483854,9.6573 0.440175,0.39835 2.096487,0.43788 18.347532,0.43788 16.931946,0 17.928146,-4e-5 18.340777,-0.45598 0.389443,-0.43033 0.416812,-1.02367 0.464842,-9.7485 l 0.07127,-12.94657 0.06357,13.28031 c 0,0 0.291357,7.97898 0.191227,8.59923 -0.10013,0.62026 -0.182828,1.33153 -0.715696,1.3888 -1.179739,0.12678 -2.731029,0.41188 -18.653123,0.41188 -17.712307,0 -18.075418,-0.0103 -18.594251,-0.52917 z m -0.529167,-31.33863 v -0.64697 l -1.256771,-0.0991 -1.256771,-0.0991 1.256771,-0.0477 1.256771,-0.0477 v -1.73182 c 0,-1.48594 0.370816,-2.10264 0.649432,-2.38125 0.278616,-0.27862 0.815941,-0.59159 2.562936,-0.60218 0.612957,-0.004 16.031316,-0.0473 16.031316,-0.0473 15.813245,0 18.014671,0.0489 18.532857,0.41188 0.518068,0.36286 0.588039,0.64612 0.588039,2.38044 v 1.96857 l 29.302605,0.0678 29.30259,0.0678 -29.29468,0.0653 -29.294706,0.0653 -0.03544,1.26858 c -0.06417,2.61775 -0.117397,2.19493 -0.187444,-1.845 -0.04779,-2.75628 -0.127725,-3.16017 -0.473276,-3.50572 -0.369806,-0.36981 -2.400721,-0.41578 -18.369641,-0.41578 -15.96892,0 -17.999835,0.046 -18.369642,0.41578 -0.349442,0.34944 -0.415773,1.06228 -0.415773,2.91042 0,3.25059 -0.09727,5.14047 -0.264584,5.14047 -0.162215,0 -0.264583,-1.27398 -0.264583,-3.29279 z"
       style="fill:#ffffff;fill-opacity:0.57054719;stroke-width:1" />
    <path
       id="path1404"
       d="m 98.552994,101.51172 c -1.46e-4,2e-5 -0.05259,0.0253 -0.05273,0.0254 -1.46e-4,1.3e-4 -0.01743,0.0212 -0.01758,0.0215 -1.46e-4,2.4e-4 -0.0062,0.0119 -0.0078,0.0156 -0.0063,0.0151 -0.0066,0.0209 -0.0078,0.0273 -0.0047,0.0256 -0.0056,0.0489 -0.0078,0.0898 -0.0044,0.0819 -0.0081,0.21437 -0.01172,0.39843 -0.01464,0.73626 -0.0235,2.28371 -0.02344,4.4668 6e-5,2.18309 0.0088,3.71144 0.02344,4.41797 0.0037,0.17663 0.0072,0.3012 0.01172,0.375 0.0023,0.0369 -0.0017,0.0469 0.0098,0.0859 0.0014,0.005 0.0095,0.0209 0.0098,0.0215 1.44e-4,2.7e-4 0.01353,0.0213 0.01367,0.0215 1.45e-4,1.6e-4 0.04087,0.0273 0.04102,0.0273 1.45e-4,5e-5 0.07017,-0.002 0.07031,-0.002 1.46e-4,-6e-5 0.03892,-0.0272 0.03906,-0.0273 1.46e-4,-1.6e-4 0.01353,-0.0192 0.01367,-0.0195 1.46e-4,-2.7e-4 0.0046,-0.008 0.0059,-0.0117 0.01005,-0.0264 0.0083,-0.0302 0.0098,-0.043 0.01213,-0.10212 0.02016,-0.39945 0.03125,-0.95703 0.04435,-2.23031 0.04447,-5.80166 0,-7.9414 -0.0056,-0.26747 -0.01035,-0.47403 -0.01563,-0.6211 -0.0053,-0.14706 -0.008,-0.22666 -0.01563,-0.27539 -9.56e-4,-0.006 -0.0033,-0.0124 -0.0059,-0.0215 -0.0013,-0.005 -0.0056,-0.017 -0.0059,-0.0176 -1.48e-4,-3e-4 -0.01157,-0.0174 -0.01172,-0.0176 -1.47e-4,-1.9e-4 -0.02915,-0.0273 -0.0293,-0.0273 -1.46e-4,-9e-5 -0.06626,-0.0117 -0.06641,-0.0117 z"
       style="color:#000000;font-style:normal;font-variant:normal;font-weight:normal;font-stretch:normal;font-size:medium;line-height:normal;font-family:sans-serif;font-variant-ligatures:normal;font-variant-position:normal;font-variant-caps:normal;font-variant-numeric:normal;font-variant-alternates:normal;font-feature-settings:normal;text-indent:0;text-align:start;text-decoration:none;text-decoration-line:none;text-decoration-style:solid;text-decoration-color:#000000;letter-spacing:normal;word-spacing:normal;text-transform:none;writing-mode:lr-tb;direction:ltr;text-orientation:mixed;dominant-baseline:auto;baseline-shift:baseline;text-anchor:start;white-space:normal;shape-padding:0;clip-rule:nonzero;display:inline;overflow:visible;visibility:visible;opacity:1;isolation:auto;mix-blend-mode:normal;color-interpolation:sRGB;color-interpolation-filters:linearRGB;solid-color:#000000;solid-opacity:1;vector-effect:none;fill:#ffffff;fill-opacity:0.57054719;fill-rule:nonzero;stroke:none;stroke-width:0.2;stroke-linecap:round;stroke-linejoin:round;stroke-miterlimit:4;stroke-dasharray:none;stroke-dashoffset:0;stroke-opacity:1;color-rendering:auto;image-rendering:auto;shape-rendering:auto;text-rendering:auto;enable-background:accumulate" />
    <path
       id="path1412"
       d="m 63.075609,128.87426 v -1.54782 l 1.461823,0.055 c 1.267178,0.0477 1.312977,0.0736 0.343958,0.19377 -1.048379,0.1301 -1.117865,0.2229 -1.117865,1.49277 0,0.74472 -0.15478,1.35403 -0.343958,1.35403 -0.189177,0 -0.343958,-0.69651 -0.343958,-1.5478 z m 4.815416,0 c 0,-1.14652 0.133762,-1.54782 0.515938,-1.54782 0.382175,0 0.515937,0.4013 0.515937,1.54782 0,1.14652 -0.133762,1.54781 -0.515937,1.54781 -0.382176,0 -0.515938,-0.40129 -0.515938,-1.54781 z m 3.439583,0 c 0,-1.14652 0.133762,-1.54782 0.515938,-1.54782 0.382176,0 0.515937,0.4013 0.515937,1.54782 0,1.14652 -0.133761,1.54781 -0.515937,1.54781 -0.382176,0 -0.515938,-0.40129 -0.515938,-1.54781 z m 2.407708,0 c 0,-1.14652 0.133762,-1.54782 0.515937,-1.54782 0.382176,0 0.515938,0.4013 0.515938,1.54782 0,1.14652 -0.133762,1.54781 -0.515938,1.54781 -0.382175,0 -0.515937,-0.40129 -0.515937,-1.54781 z m 3.095625,0 c 0,-0.85129 0.154782,-1.54782 0.343958,-1.54782 0.189177,0 0.343959,0.69653 0.343959,1.54782 0,0.85129 -0.154782,1.54781 -0.343959,1.54781 -0.189176,0 -0.343958,-0.69652 -0.343958,-1.54781 z m 2.820458,1.13506 c -0.498048,-0.49805 -0.554068,-2.68288 -0.0688,-2.68288 0.189176,0 0.343958,0.47884 0.343958,1.06408 0,0.77481 0.18701,1.11298 0.687917,1.24397 0.378353,0.0989 0.687916,0.31663 0.687916,0.48374 0,0.44712 -1.172303,0.36979 -1.651,-0.10894 z"
       style="fill:#ffffff;fill-opacity:0.57054719;stroke-width:1" />
    <path
       style="fill:#ffffff;fill-opacity:0.57054719;stroke-width:1"
       d="m 68.301357,106.49055 0.07454,-3.10885 3.63802,-0.0736 3.638021,-0.0736 v 3.18247 3.18246 h -3.712563 -3.712564 z m 6.556834,0.0662 v -2.51355 h -2.910417 -2.910416 v 2.51355 2.51354 h 2.910416 2.910417 z m -3.704167,-0.15434 c 0,-0.59421 0.0893,-1.03688 0.198438,-0.9837 1.954044,0.95206 1.965134,0.97223 0.885218,1.61016 -1.050463,0.62052 -1.083656,0.60133 -1.083656,-0.62646 z"
       id="path1454" />
    <path
       style="fill:#ffffff;fill-opacity:0.57054719;stroke-width:1"
       d="m 63.097262,120.83516 c 0.200514,-1.72267 3.360064,-2.46796 3.949597,-0.93166 0.293484,0.76481 -0.224023,1.10251 -0.616046,0.402 -0.680347,-1.21571 -3.078868,-0.33983 -2.586073,0.94437 0.124787,0.3252 0.0017,0.52032 -0.328326,0.52032 -0.371887,0 -0.495811,-0.27645 -0.419152,-0.93503 z m 5.44019,0.59107 c 0,-0.18917 0.154781,-0.34395 0.343958,-0.34395 0.189178,0 0.343958,-0.30957 0.343958,-0.68792 0,-0.37835 0.154782,-0.68792 0.343959,-0.68792 0.189176,0 0.343958,0.30957 0.343958,0.68792 0,0.38217 0.229306,0.68792 0.515938,0.68792 0.283765,0 0.515937,0.15478 0.515937,0.34395 0,0.18918 -0.541734,0.34396 -1.203854,0.34396 -0.66212,0 -1.203854,-0.15478 -1.203854,-0.34396 z m 4.729426,-0.0758 c 0.556415,-0.26834 0.991399,-0.26834 1.547813,0 0.679493,0.32772 0.58508,0.37325 -0.773906,0.37325 -1.358985,0 -1.453398,-0.0455 -0.773907,-0.37325 z m 3.869531,0.0758 c 0,-0.18917 0.154782,-0.34395 0.343959,-0.34395 0.189177,0 0.343958,0.15478 0.343958,0.34395 0,0.18918 -0.154781,0.34396 -0.343958,0.34396 -0.189177,0 -0.343959,-0.15478 -0.343959,-0.34396 z m 1.547812,0 c 0.116922,-0.18917 0.358227,-0.34395 0.536239,-0.34395 0.178013,0 0.323658,0.15478 0.323658,0.34395 0,0.18918 -0.241307,0.34396 -0.536238,0.34396 -0.294931,0 -0.440577,-0.15478 -0.323659,-0.34396 z"
       id="path1456" />
    <path
       id="path1469"
       d="m 151.58727,108.54107 v -1.5875 h -1.71979 c -1.3272,0 -1.71979,-0.0877 -1.71979,-0.38425 0,-0.28655 0.42044,-0.40428 1.65365,-0.46302 l 1.65364,-0.0788 0.0788,-1.65365 c 0.0588,-1.23321 0.17647,-1.65364 0.46302,-1.65364 0.29654,0 0.38425,0.39259 0.38425,1.71979 v 1.71979 h 1.5875 c 1.23473,0 1.5875,0.0882 1.5875,0.39688 0,0.30868 -0.35277,0.39687 -1.5875,0.39687 h -1.5875 v 1.5875 c 0,1.23472 -0.0882,1.5875 -0.39687,1.5875 -0.30868,0 -0.39688,-0.35278 -0.39688,-1.5875 z"
       style="fill:#ffffff;fill-opacity:0.57054719;stroke-width:1" />
    <path
       style="fill:#ffffff;fill-opacity:0.57054719;stroke-width:1"
       d="m 119.86164,110.31233 c -0.0729,-0.18997 -0.0989,-1.82708 -0.0578,-3.63802 l 0.0747,-3.29261 h 3.57187 3.57188 l 0.0736,3.63802 0.0736,3.63802 h -3.58764 c -2.70734,0 -3.62017,-0.0847 -3.72019,-0.34541 z m 6.49915,-3.35876 v -2.91042 h -2.91042 -2.91041 v 2.91042 2.91042 h 2.91041 2.91042 z m -4.16719,0.80868 c -0.32742,-0.27314 -0.59531,-0.56684 -0.59531,-0.65265 0,-0.3175 0.74001,-0.14271 1.06777,0.25221 0.29557,0.35615 0.48388,0.24643 1.47574,-0.85989 0.62546,-0.69763 1.1374,-1.08959 1.13795,-0.87127 10e-4,0.43759 -1.89774,2.65107 -2.2622,2.63704 -0.12575,-0.005 -0.49653,-0.23229 -0.82395,-0.50544 z"
       id="path1471" />
    <path
       style="fill:#ffffff;fill-opacity:0.57054719;stroke-width:1"
       d="m 136.73227,110.70305 c -0.24083,-0.26612 -0.43788,-0.62331 -0.43788,-0.79375 0,-0.19574 -0.49036,-0.3099 -1.33122,-0.3099 -1.70273,0 -1.92197,-0.46578 -0.81348,-1.72828 0.67673,-0.77075 0.82179,-1.16155 0.82179,-2.21399 0,-1.45921 0.65,-2.51246 1.7156,-2.77991 0.4309,-0.10815 0.66564,-0.3519 0.66564,-0.69119 0,-0.66099 0.44247,-0.68494 0.64872,-0.0351 0.0854,0.26896 0.45085,0.62372 0.81219,0.78835 0.97748,0.44537 1.71196,1.83406 1.71311,3.23898 7.9e-4,0.95918 0.13769,1.32793 0.66244,1.78419 0.3638,0.31632 0.66146,0.81404 0.66146,1.10605 0,0.46714 -0.17479,0.53091 -1.45521,0.53091 -1.08479,0 -1.45521,0.0962 -1.45521,0.37798 0,0.52465 -0.73656,1.20952 -1.3008,1.20952 -0.2581,0 -0.66631,-0.21773 -0.90715,-0.48385 z m 1.4142,-0.70677 c 0,-0.22049 -0.23518,-0.39688 -0.52916,-0.39688 -0.52712,0 -0.68821,0.28193 -0.35278,0.61737 0.32225,0.32224 0.88194,0.18231 0.88194,-0.22049 z m 2.29846,-1.66812 c -0.58671,-0.61241 -0.71096,-0.9844 -0.71096,-2.1287 0,-1.11942 -0.12513,-1.51175 -0.64943,-2.03604 -0.63449,-0.63449 -1.52131,-0.81513 -2.38142,-0.48508 -0.65662,0.25197 -1.20248,1.534 -1.20248,2.82421 0,0.82674 -0.15292,1.30115 -0.52916,1.64165 -0.29105,0.26339 -0.52917,0.57949 -0.52917,0.70246 0,0.12297 1.51055,0.22358 3.35679,0.22358 h 3.35679 z"
       id="path1473" />
    <path
       id="path1475"
       d="m 111.99898,109.84103 c -0.76795,-0.76796 -0.8777,-0.79986 -1.83865,-0.53453 -2.7395,0.75641 -5.39075,-1.94714 -4.35697,-4.44292 1.12036,-2.70478 4.46289,-3.11769 6.1879,-0.76441 0.65291,0.8907 0.69684,2.74216 0.0871,3.67267 -0.42818,0.65349 -0.41646,0.6913 0.48507,1.5651 0.50812,0.49249 0.92386,0.99114 0.92386,1.10812 0,0.46109 -0.71231,0.17201 -1.48835,-0.60403 z m -1.53328,-1.53424 c 2.25894,-1.3775 1.51711,-4.6191 -1.13859,-4.9753 -1.01674,-0.13637 -1.20021,-0.0662 -2.0501,0.78365 -1.44036,1.44035 -1.24974,3.12438 0.47252,4.17452 1.05581,0.64377 1.68207,0.64772 2.71617,0.0171 z"
       style="fill:#ffffff;fill-opacity:0.57054719;stroke-width:1" />
    <g
       id="text1550"
       style="font-style:normal;font-variant:normal;font-weight:normal;font-stretch:normal;font-size:5.64444447px;line-height:1.25;font-family:'linux biolinum o';-inkscape-font-specification:'linux biolinum o';letter-spacing:0px;word-spacing:0px;fill:#fcfcfc;fill-opacity:1;stroke:#022266;stroke-width:0.465;stroke-linecap:round;stroke-linejoin:round;stroke-miterlimit:4;stroke-dasharray:none;stroke-opacity:1"
       transform="rotate(-22.475622)"
       aria-label="2" />
    <g
       style="stroke-width:0.82389492"
       transform="matrix(1.214861,0,0,1.2126341,-19.263084,-31.209685)"
       id="g1566">
      <g
         style="stroke-width:0.82389492"
         id="g1585">
        <g
           style="stroke-width:0.82389492"
           id="g1535"
           transform="translate(1.5110351e-8,37.952273)">
          <path
             stroke-miterlimit="3"
             d="m 87.741119,110.45361 -0.55563,-1.34727 c -0.0142,-0.0319 -0.03334,-0.0688 -0.05678,-0.11077 -0.0596,-0.10479 -0.126964,-0.19547 -0.202273,-0.27195 -0.225042,-0.22894 -0.479124,-0.29554 -0.762219,-0.19977 -0.267946,0.13149 -0.401024,0.35776 -0.399274,0.67878 6.04e-4,0.10727 0.01666,0.21914 0.04824,0.33548 0.01292,0.0463 0.0245,0.0863 0.03676,0.11902 l 1.656885,4.01756 c -1.473609,-0.80486 -2.088623,-0.53463 -1.845052,0.81068 1.588608,0.55918 2.961949,1.68976 4.120031,3.39174 l 3.915686,-1.62741 c -0.0205,-0.46831 -0.07947,-1.09 -0.176934,-1.86511 -0.0971,-0.77525 -0.382126,-1.83047 -0.855055,-3.16563 l -0.224392,-0.55013 c -0.0147,-0.0367 -0.03719,-0.0813 -0.06759,-0.13341 -0.06067,-0.10435 -0.130233,-0.19411 -0.208694,-0.26929 -0.250634,-0.24106 -0.541985,-0.29314 -0.874041,-0.15619 -0.19278,0.0795 -0.340052,0.13591 -0.441673,0.1696 l -0.09493,0.0266 -0.120463,-0.0267 c -0.250626,-0.24107 -0.541979,-0.29312 -0.874036,-0.15618 -0.192769,0.0795 -0.34004,0.13591 -0.441662,0.1696 l -0.09051,0.0373 -0.08019,0.0728 c -0.250645,-0.24109 -0.541984,-0.29314 -0.874041,-0.15619 -0.19277,0.0795 -0.340041,0.13591 -0.441663,0.16959 l -0.0905,0.0373"
             id="path1773"
             style="clip-rule:evenodd;fill:#22386d;fill-opacity:1;fill-rule:evenodd;stroke:none;stroke-width:0.39711735;stroke-linecap:round;stroke-linejoin:round;stroke-miterlimit:3;stroke-dasharray:none;stroke-opacity:1" />
          <path
             style="clip-rule:evenodd;fill:none;fill-opacity:1;fill-rule:evenodd;stroke:#ffffff;stroke-width:0.49433696;stroke-linecap:round;stroke-linejoin:round;stroke-miterlimit:3;stroke-dasharray:none;stroke-opacity:1"
             id="path1533"
             d="m 90.900465,110.65893 c -0.01424,-0.032 -0.03334,-0.0688 -0.05804,-0.11025 -0.06067,-0.10436 -0.130237,-0.19411 -0.208704,-0.26929 -0.250626,-0.24107 -0.541979,-0.29312 -0.874036,-0.15618 -0.192769,0.0795 -0.34004,0.13591 -0.441662,0.1696 l -0.09051,0.0373 0.186539,0.45231 0.333114,0.80773 m -0.333114,-0.80773 c -0.0142,-0.0319 -0.03334,-0.0688 -0.05804,-0.11026 -0.06067,-0.10435 -0.130236,-0.19412 -0.20869,-0.26928 -0.250645,-0.24109 -0.541984,-0.29314 -0.874041,-0.15619 -0.19277,0.0795 -0.340041,0.13591 -0.441663,0.16959 l -0.0905,0.0373 0.51965,1.26003 m -0.51965,-1.26003 -0.55563,-1.34727 c -0.0142,-0.0319 -0.03334,-0.0688 -0.05678,-0.11077 -0.0596,-0.10479 -0.126964,-0.19547 -0.202273,-0.27195 -0.225042,-0.22894 -0.479124,-0.29554 -0.762219,-0.19977 -0.267946,0.13149 -0.401024,0.35776 -0.399274,0.67878 6.04e-4,0.10727 0.01666,0.21914 0.04824,0.33548 0.01292,0.0463 0.0245,0.0863 0.03676,0.11902 l 1.656885,4.01756 c -1.473609,-0.80486 -2.088623,-0.53463 -1.845052,0.81068 1.588608,0.55918 2.961949,1.68976 4.120031,3.39174 l 3.915686,-1.62741 c -0.0205,-0.46831 -0.07947,-1.09 -0.176934,-1.86511 -0.0971,-0.77525 -0.382126,-1.83047 -0.855055,-3.16563 l -0.224392,-0.55013 c -0.0147,-0.0367 -0.03719,-0.0813 -0.06759,-0.13341 -0.06067,-0.10435 -0.130233,-0.19411 -0.208694,-0.26929 -0.250634,-0.24106 -0.541985,-0.29314 -0.874041,-0.15619 -0.19278,0.0795 -0.340052,0.13591 -0.441673,0.1696 l -0.09493,0.0266 0.145679,0.35324 c 0.0015,0.004 0.0034,0.008 0.0056,0.0135 l 0.301669,0.73751 0.0712,0.1666 m 0.03449,0.0986 -0.105676,-0.26515"
             stroke-miterlimit="3" />
        </g>
        <g
           id="text1539"
           style="font-style:normal;font-variant:normal;font-weight:normal;font-stretch:normal;font-size:5.64444447px;line-height:1.25;font-family:'linux biolinum o';-inkscape-font-specification:'linux biolinum o';letter-spacing:0px;word-spacing:0px;fill:#fcfcfc;fill-opacity:1;stroke:#ffffff;stroke-width:0.08238949;stroke-linecap:round;stroke-linejoin:round;stroke-miterlimit:4;stroke-dasharray:none;stroke-opacity:1"
           transform="rotate(-22.475622)"
           aria-label="2">
          <path
             id="path1556"
             style="fill:#fcfcfc;fill-opacity:1;stroke:#ffffff;stroke-width:0.08238949;stroke-linecap:round;stroke-linejoin:round;stroke-miterlimit:4;stroke-dasharray:none;stroke-opacity:1"
             d="m 25.307052,174.16544 c 0.293511,0 0.592667,0.27094 0.592667,0.67169 0,0.23142 -0.06773,0.53058 -0.214489,0.75071 -0.400756,0.60396 -1.049867,1.17405 -1.326444,1.43369 -0.0056,0.0226 -0.01129,0.0452 -0.01129,0.0734 0,0.0847 0.02822,0.17498 0.05644,0.22013 0.417689,-0.0113 0.6604,-0.0282 1.072445,-0.0282 0.4064,0 0.575733,0.0113 0.976488,0.0282 -0.0056,-0.0564 -0.01693,-0.12418 -0.01693,-0.18626 0,-0.0903 0.0056,-0.17498 0.02822,-0.26529 -0.316089,0.0282 -0.491066,0.0451 -1.032933,0.0451 -0.197556,0 -0.3048,0 -0.462844,0.0113 0,-0.006 -0.0056,-0.0169 -0.0056,-0.0282 0,-0.0508 0.06209,-0.10725 0.1016,-0.1524 0.276578,-0.26529 0.541867,-0.51929 0.9144,-1.02165 0.208845,-0.27657 0.4064,-0.63782 0.4064,-0.95955 0,-0.53622 -0.361244,-0.9144 -0.987778,-0.9144 -0.513644,0 -0.846666,0.28787 -0.970844,0.4572 l 0.118533,0.38947 0.07338,0.006 c 0.07902,-0.16933 0.107244,-0.28222 0.254,-0.40076 0.112889,-0.0903 0.276578,-0.12982 0.434622,-0.12982 z" />
        </g>
      </g>
    </g>
    <g
       style="stroke-width:0.82389492"
       transform="matrix(1.214861,0,0,1.2126341,-19.117192,-37.134926)"
       id="g1811">
      <g
         style="stroke-width:0.82389492"
         id="g1790"
         transform="translate(5.4021853,-12.254308)">
        <g
           style="stroke-width:0.82389492"
           id="g1788">
          <g
             style="stroke-width:0.82389492"
             id="g1782"
             transform="translate(-5.7997487,23.827079)">
            <path
               stroke-miterlimit="3"
               d="m 87.741119,110.45361 -0.55563,-1.34727 c -0.0142,-0.0319 -0.03334,-0.0688 -0.05678,-0.11077 -0.0596,-0.10479 -0.126964,-0.19547 -0.202273,-0.27195 -0.225042,-0.22894 -0.479124,-0.29554 -0.762219,-0.19977 -0.267946,0.13149 -0.401024,0.35776 -0.399274,0.67878 6.04e-4,0.10727 0.01666,0.21914 0.04824,0.33548 0.01292,0.0463 0.0245,0.0863 0.03676,0.11902 l 1.656885,4.01756 c -1.473609,-0.80486 -2.088623,-0.53463 -1.845052,0.81068 1.588608,0.55918 2.961949,1.68976 4.120031,3.39174 l 3.915686,-1.62741 c -0.0205,-0.46831 -0.07947,-1.09 -0.176934,-1.86511 -0.0971,-0.77525 -0.382126,-1.83047 -0.855055,-3.16563 l -0.224392,-0.55013 c -0.0147,-0.0367 -0.03719,-0.0813 -0.06759,-0.13341 -0.06067,-0.10435 -0.130233,-0.19411 -0.208694,-0.26929 -0.250634,-0.24106 -0.541985,-0.29314 -0.874041,-0.15619 -0.19278,0.0795 -0.340052,0.13591 -0.441673,0.1696 l -0.09493,0.0266 -0.120463,-0.0267 c -0.250626,-0.24107 -0.541979,-0.29312 -0.874036,-0.15618 -0.192769,0.0795 -0.34004,0.13591 -0.441662,0.1696 l -0.09051,0.0373 -0.08019,0.0728 c -0.250645,-0.24109 -0.541984,-0.29314 -0.874041,-0.15619 -0.19277,0.0795 -0.340041,0.13591 -0.441663,0.16959 l -0.0905,0.0373"
               id="path1778"
               style="clip-rule:evenodd;fill:#22386d;fill-opacity:1;fill-rule:evenodd;stroke:none;stroke-width:0.39711735;stroke-linecap:round;stroke-linejoin:round;stroke-miterlimit:3;stroke-dasharray:none;stroke-opacity:1" />
            <path
               style="clip-rule:evenodd;fill:none;fill-opacity:1;fill-rule:evenodd;stroke:#ffffff;stroke-width:0.49433696;stroke-linecap:round;stroke-linejoin:round;stroke-miterlimit:3;stroke-dasharray:none;stroke-opacity:1"
               id="path1780"
               d="m 90.900465,110.65893 c -0.01424,-0.032 -0.03334,-0.0688 -0.05804,-0.11025 -0.06067,-0.10436 -0.130237,-0.19411 -0.208704,-0.26929 -0.250626,-0.24107 -0.541979,-0.29312 -0.874036,-0.15618 -0.192769,0.0795 -0.34004,0.13591 -0.441662,0.1696 l -0.09051,0.0373 0.186539,0.45231 0.333114,0.80773 m -0.333114,-0.80773 c -0.0142,-0.0319 -0.03334,-0.0688 -0.05804,-0.11026 -0.06067,-0.10435 -0.130236,-0.19412 -0.20869,-0.26928 -0.250645,-0.24109 -0.541984,-0.29314 -0.874041,-0.15619 -0.19277,0.0795 -0.340041,0.13591 -0.441663,0.16959 l -0.0905,0.0373 0.51965,1.26003 m -0.51965,-1.26003 -0.55563,-1.34727 c -0.0142,-0.0319 -0.03334,-0.0688 -0.05678,-0.11077 -0.0596,-0.10479 -0.126964,-0.19547 -0.202273,-0.27195 -0.225042,-0.22894 -0.479124,-0.29554 -0.762219,-0.19977 -0.267946,0.13149 -0.401024,0.35776 -0.399274,0.67878 6.04e-4,0.10727 0.01666,0.21914 0.04824,0.33548 0.01292,0.0463 0.0245,0.0863 0.03676,0.11902 l 1.656885,4.01756 c -1.473609,-0.80486 -2.088623,-0.53463 -1.845052,0.81068 1.588608,0.55918 2.961949,1.68976 4.120031,3.39174 l 3.915686,-1.62741 c -0.0205,-0.46831 -0.07947,-1.09 -0.176934,-1.86511 -0.0971,-0.77525 -0.382126,-1.83047 -0.855055,-3.16563 l -0.224392,-0.55013 c -0.0147,-0.0367 -0.03719,-0.0813 -0.06759,-0.13341 -0.06067,-0.10435 -0.130233,-0.19411 -0.208694,-0.26929 -0.250634,-0.24106 -0.541985,-0.29314 -0.874041,-0.15619 -0.19278,0.0795 -0.340052,0.13591 -0.441673,0.1696 l -0.09493,0.0266 0.145679,0.35324 c 0.0015,0.004 0.0034,0.008 0.0056,0.0135 l 0.301669,0.73751 0.0712,0.1666 m 0.03449,0.0986 -0.105676,-0.26515"
               stroke-miterlimit="3" />
          </g>
        </g>
      </g>
      <g
         aria-label="1"
         transform="rotate(-22.475622,-45.839071,21.790192)"
         style="font-style:normal;font-variant:normal;font-weight:normal;font-stretch:normal;font-size:5.64444447px;line-height:1.25;font-family:'linux biolinum o';-inkscape-font-specification:'linux biolinum o';letter-spacing:0px;word-spacing:0px;fill:#fcfcfc;fill-opacity:1;stroke:#ffffff;stroke-width:0.08238949;stroke-miterlimit:3;stroke-dasharray:none;stroke-opacity:1"
         id="text1546">
        <path
           d="m 40.31157,170.98577 v -1.43369 c 0,-0.6096 0.03387,-0.83538 0.04516,-0.9144 0,-0.0282 -0.01693,-0.0282 -0.03951,-0.0282 -0.366889,0.11853 -0.795867,0.33866 -1.236134,0.47413 l 0.03387,0.16369 c 0.254,-0.0282 0.530578,-0.0903 0.643467,-0.0903 0.1016,0 0.1016,0.22577 0.1016,0.42897 v 1.39983 c 0,0.44026 -0.0056,0.74506 -0.04516,1.0668 l 0.0056,0.0169 c 0,0 0.158044,-0.0169 0.259644,-0.0169 0.112889,0 0.270933,0.0169 0.270933,0.0169 l 0.01129,-0.0169 c -0.03951,-0.33867 -0.0508,-0.62089 -0.0508,-1.0668 z"
           style="fill:#fcfcfc;fill-opacity:1;stroke:#ffffff;stroke-width:0.08238949;stroke-miterlimit:3;stroke-dasharray:none;stroke-opacity:1"
           id="path1587" />
      </g>
    </g>
  </g>
</svg>
